# xmcd
#
# Track frame offsets: 
#        150
#        49249
#        69790
#        92965
#        108565
#        141152
#        163022
#
# Disc length: 2529 seconds
#
# Revision: 1
# Processed by: cddbd v1.5.2PL0 Copyright (c) Steve Scherf et al.
# Submitted via: ExactAudioCopy v0.99pb4
#
DISCID=5e09df07
DTITLE=B.B. King - Quadromania Disk 4 von 4
DYEAR=2005
DGENRE=Blues
TTITLE0=BB's Theme
TTITLE1=Why I Sing The Blues
TTITLE2=Darling You Know I Love You
TTITLE3=Caledonia
TTITLE4=All Over Again
TTITLE5=Everyday I Have The Blues
TTITLE6=Sweet Little Angel
EXTD=
EXTT0=
EXTT1=
EXTT2=
EXTT3=
EXTT4=
EXTT5=
EXTT6=
PLAYORDER=
